# xmcd CD database file
#
# Track frame offsets:
#	150
#	24621
#	43903
#	64972
#	85557
#	104114
#	121428
#	148637
#	169865
#	201320
#	221521
#
# Disc length: 3580 seconds
#
# Revision: 0
# Processed by: cddbd v1.4PL0 Copyright (c) Steve Scherf et al.
# Submitted via: CDex 1.50
#
DISCID=a80dfa0b
DTITLE=Bump Kitchen - Big Ol´ Bones
DYEAR=2002
DGENRE=Blues
TTITLE0=Layin´ Awake
TTITLE1=I Told You So
TTITLE2=Big Ol´ Bones
TTITLE3=I Can´t Make You Love Me
TTITLE4=Heaven
TTITLE5=Still Got You
TTITLE6=Because Of You
TTITLE7=Don´t Say Don´t
TTITLE8=Ghost
TTITLE9=I Broke My Baby´s Heart
TTITLE10=Friends Or Lovers
EXTD=YEAR: 2002
EXTT0=
EXTT1=
EXTT2=
EXTT3=
EXTT4=
EXTT5=
EXTT6=
EXTT7=
EXTT8=
EXTT9=
EXTT10=
PLAYORDER=
